# xmcd
#
# Track frame offsets:
#	150
#	26892
#	48179
#	70557
#	94797
#	111535
#	129331
#	149225
#	171976
#	195085
#	219358
#
# Disc length: 3065 seconds
#
# Revision: 1
# Processed by: cddbd v1.5.2PL0 Copyright (c) Steve Scherf et al.
# Submitted via: audiograbber 1.83.01
#
DISCID=9e0bf70b
DTITLE=Like A Prayer - Madonna
DYEAR=1989
DGENRE=Pop
TTITLE0=Like A Prayer
TTITLE1=Express Yourself
TTITLE2=Love Song
TTITLE3=Till Death Do Us Part
TTITLE4=Promise To Try
TTITLE5=Cherish
TTITLE6=Dear Jessie
TTITLE7=Oh Father
TTITLE8=Keep It Together
TTITLE9=Pray For Spanish Eyes
TTITLE10=Act Of Contrition
EXTD=
EXTT0=
EXTT1=
EXTT2=
EXTT3=
EXTT4=
EXTT5=
EXTT6=
EXTT7=
EXTT8=
EXTT9=
EXTT10=
PLAYORDER=
